<svg xmlns="http://www.w3.org/2000/svg" width="216" height="153" viewBox="0 0 216 153" shape-rendering="crispEdges">
  <rect x="81" y="9" width="9" height="9" fill="#1a1a2e"/>
  <rect x="90" y="9" width="9" height="9" fill="#1a1a2e"/>
  <rect x="99" y="9" width="9" height="9" fill="#1a1a2e"/>
  <rect x="72" y="18" width="9" height="9" fill="#1a1a2e"/>
  <rect x="81" y="18" width="9" height="9" fill="#ffffff"/>
  <rect x="90" y="18" width="9" height="9" fill="#ffffff"/>
  <rect x="99" y="18" width="9" height="9" fill="#ffffff"/>
  <rect x="108" y="18" width="9" height="9" fill="#1a1a2e"/>
  <rect x="72" y="27" width="9" height="9" fill="#1a1a2e"/>
  <rect x="81" y="27" width="9" height="9" fill="#ffffff"/>
  <rect x="90" y="27" width="9" height="9" fill="#ffffff"/>
  <rect x="99" y="27" width="9" height="9" fill="#1e3a5f"/>
  <rect x="108" y="27" width="9" height="9" fill="#1a1a2e"/>
  <rect x="117" y="27" width="9" height="9" fill="#1a1a2e"/>
  <rect x="63" y="36" width="9" height="9" fill="#1a1a2e"/>
  <rect x="72" y="36" width="9" height="9" fill="#ffffff"/>
  <rect x="81" y="36" width="9" height="9" fill="#ffffff"/>
  <rect x="90" y="36" width="9" height="9" fill="#ffffff"/>
  <rect x="99" y="36" width="9" height="9" fill="#ffffff"/>
  <rect x="108" y="36" width="9" height="9" fill="#ffffff"/>
  <rect x="117" y="36" width="9" height="9" fill="#ffffff"/>
  <rect x="126" y="36" width="9" height="9" fill="#1a1a2e"/>
  <rect x="135" y="36" width="9" height="9" fill="#f97316"/>
  <rect x="144" y="36" width="9" height="9" fill="#f97316"/>
  <rect x="153" y="36" width="9" height="9" fill="#f97316"/>
  <rect x="63" y="45" width="9" height="9" fill="#1a1a2e"/>
  <rect x="72" y="45" width="9" height="9" fill="#ffffff"/>
  <rect x="81" y="45" width="9" height="9" fill="#ffffff"/>
  <rect x="90" y="45" width="9" height="9" fill="#ffffff"/>
  <rect x="99" y="45" width="9" height="9" fill="#ffffff"/>
  <rect x="108" y="45" width="9" height="9" fill="#ffffff"/>
  <rect x="117" y="45" width="9" height="9" fill="#ffffff"/>
  <rect x="126" y="45" width="9" height="9" fill="#ffffff"/>
  <rect x="135" y="45" width="9" height="9" fill="#1a1a2e"/>
  <rect x="54" y="54" width="9" height="9" fill="#1a1a2e"/>
  <rect x="63" y="54" width="9" height="9" fill="#ffffff"/>
  <rect x="72" y="54" width="9" height="9" fill="#ffffff"/>
  <rect x="81" y="54" width="9" height="9" fill="#ffffff"/>
  <rect x="90" y="54" width="9" height="9" fill="#ffffff"/>
  <rect x="99" y="54" width="9" height="9" fill="#ffffff"/>
  <rect x="108" y="54" width="9" height="9" fill="#ffffff"/>
  <rect x="117" y="54" width="9" height="9" fill="#ffffff"/>
  <rect x="126" y="54" width="9" height="9" fill="#ffffff"/>
  <rect x="135" y="54" width="9" height="9" fill="#ffffff"/>
  <rect x="144" y="54" width="9" height="9" fill="#1a1a2e"/>
  <rect x="45" y="63" width="9" height="9" fill="#1a1a2e"/>
  <rect x="54" y="63" width="9" height="9" fill="#ffffff"/>
  <rect x="63" y="63" width="9" height="9" fill="#ffffff"/>
  <rect x="72" y="63" width="9" height="9" fill="#ffffff"/>
  <rect x="81" y="63" width="9" height="9" fill="#ffffff"/>
  <rect x="90" y="63" width="9" height="9" fill="#ffffff"/>
  <rect x="99" y="63" width="9" height="9" fill="#ffffff"/>
  <rect x="108" y="63" width="9" height="9" fill="#ffffff"/>
  <rect x="117" y="63" width="9" height="9" fill="#ffffff"/>
  <rect x="126" y="63" width="9" height="9" fill="#ffffff"/>
  <rect x="135" y="63" width="9" height="9" fill="#ffffff"/>
  <rect x="144" y="63" width="9" height="9" fill="#ffffff"/>
  <rect x="153" y="63" width="9" height="9" fill="#1a1a2e"/>
  <rect x="36" y="72" width="9" height="9" fill="#1a1a2e"/>
  <rect x="45" y="72" width="9" height="9" fill="#ffffff"/>
  <rect x="54" y="72" width="9" height="9" fill="#ffffff"/>
  <rect x="63" y="72" width="9" height="9" fill="#ffffff"/>
  <rect x="72" y="72" width="9" height="9" fill="#7ec8e3"/>
  <rect x="81" y="72" width="9" height="9" fill="#7ec8e3"/>
  <rect x="90" y="72" width="9" height="9" fill="#7ec8e3"/>
  <rect x="99" y="72" width="9" height="9" fill="#ffffff"/>
  <rect x="108" y="72" width="9" height="9" fill="#ffffff"/>
  <rect x="117" y="72" width="9" height="9" fill="#ffffff"/>
  <rect x="126" y="72" width="9" height="9" fill="#ffffff"/>
  <rect x="135" y="72" width="9" height="9" fill="#ffffff"/>
  <rect x="144" y="72" width="9" height="9" fill="#ffffff"/>
  <rect x="153" y="72" width="9" height="9" fill="#ffffff"/>
  <rect x="162" y="72" width="9" height="9" fill="#1a1a2e"/>
  <rect x="27" y="81" width="9" height="9" fill="#1a1a2e"/>
  <rect x="36" y="81" width="9" height="9" fill="#ffffff"/>
  <rect x="45" y="81" width="9" height="9" fill="#ffffff"/>
  <rect x="54" y="81" width="9" height="9" fill="#ffffff"/>
  <rect x="63" y="81" width="9" height="9" fill="#ffffff"/>
  <rect x="72" y="81" width="9" height="9" fill="#7ec8e3"/>
  <rect x="81" y="81" width="9" height="9" fill="#4fa8c8"/>
  <rect x="90" y="81" width="9" height="9" fill="#7ec8e3"/>
  <rect x="99" y="81" width="9" height="9" fill="#7ec8e3"/>
  <rect x="108" y="81" width="9" height="9" fill="#ffffff"/>
  <rect x="117" y="81" width="9" height="9" fill="#ffffff"/>
  <rect x="126" y="81" width="9" height="9" fill="#ffffff"/>
  <rect x="135" y="81" width="9" height="9" fill="#ffffff"/>
  <rect x="144" y="81" width="9" height="9" fill="#ffffff"/>
  <rect x="153" y="81" width="9" height="9" fill="#ffffff"/>
  <rect x="162" y="81" width="9" height="9" fill="#ffffff"/>
  <rect x="171" y="81" width="9" height="9" fill="#1a1a2e"/>
  <rect x="18" y="90" width="9" height="9" fill="#1a1a2e"/>
  <rect x="27" y="90" width="9" height="9" fill="#ffffff"/>
  <rect x="36" y="90" width="9" height="9" fill="#ffffff"/>
  <rect x="45" y="90" width="9" height="9" fill="#ffffff"/>
  <rect x="54" y="90" width="9" height="9" fill="#ffffff"/>
  <rect x="63" y="90" width="9" height="9" fill="#ffffff"/>
  <rect x="72" y="90" width="9" height="9" fill="#7ec8e3"/>
  <rect x="81" y="90" width="9" height="9" fill="#4fa8c8"/>
  <rect x="90" y="90" width="9" height="9" fill="#4fa8c8"/>
  <rect x="99" y="90" width="9" height="9" fill="#7ec8e3"/>
  <rect x="108" y="90" width="9" height="9" fill="#ffffff"/>
  <rect x="117" y="90" width="9" height="9" fill="#ffffff"/>
  <rect x="126" y="90" width="9" height="9" fill="#ffffff"/>
  <rect x="135" y="90" width="9" height="9" fill="#ffffff"/>
  <rect x="144" y="90" width="9" height="9" fill="#ffffff"/>
  <rect x="153" y="90" width="9" height="9" fill="#ffffff"/>
  <rect x="162" y="90" width="9" height="9" fill="#ffffff"/>
  <rect x="171" y="90" width="9" height="9" fill="#ffffff"/>
  <rect x="180" y="90" width="9" height="9" fill="#1a1a2e"/>
  <rect x="9" y="99" width="9" height="9" fill="#1a1a2e"/>
  <rect x="18" y="99" width="9" height="9" fill="#ffffff"/>
  <rect x="27" y="99" width="9" height="9" fill="#ffffff"/>
  <rect x="36" y="99" width="9" height="9" fill="#ffffff"/>
  <rect x="45" y="99" width="9" height="9" fill="#ffffff"/>
  <rect x="54" y="99" width="9" height="9" fill="#ffffff"/>
  <rect x="63" y="99" width="9" height="9" fill="#ffffff"/>
  <rect x="72" y="99" width="9" height="9" fill="#7ec8e3"/>
  <rect x="81" y="99" width="9" height="9" fill="#7ec8e3"/>
  <rect x="90" y="99" width="9" height="9" fill="#7ec8e3"/>
  <rect x="99" y="99" width="9" height="9" fill="#ffffff"/>
  <rect x="108" y="99" width="9" height="9" fill="#ffffff"/>
  <rect x="117" y="99" width="9" height="9" fill="#ffffff"/>
  <rect x="126" y="99" width="9" height="9" fill="#ffffff"/>
  <rect x="135" y="99" width="9" height="9" fill="#ffffff"/>
  <rect x="144" y="99" width="9" height="9" fill="#ffffff"/>
  <rect x="153" y="99" width="9" height="9" fill="#ffffff"/>
  <rect x="162" y="99" width="9" height="9" fill="#ffffff"/>
  <rect x="171" y="99" width="9" height="9" fill="#ffffff"/>
  <rect x="180" y="99" width="9" height="9" fill="#ffffff"/>
  <rect x="189" y="99" width="9" height="9" fill="#1a1a2e"/>
  <rect x="0" y="108" width="9" height="9" fill="#1a1a2e"/>
  <rect x="9" y="108" width="9" height="9" fill="#ffffff"/>
  <rect x="18" y="108" width="9" height="9" fill="#ffffff"/>
  <rect x="27" y="108" width="9" height="9" fill="#ffffff"/>
  <rect x="36" y="108" width="9" height="9" fill="#ffffff"/>
  <rect x="45" y="108" width="9" height="9" fill="#ffffff"/>
  <rect x="54" y="108" width="9" height="9" fill="#ffffff"/>
  <rect x="63" y="108" width="9" height="9" fill="#ffffff"/>
  <rect x="72" y="108" width="9" height="9" fill="#ffffff"/>
  <rect x="81" y="108" width="9" height="9" fill="#ffffff"/>
  <rect x="90" y="108" width="9" height="9" fill="#ffffff"/>
  <rect x="99" y="108" width="9" height="9" fill="#ffffff"/>
  <rect x="108" y="108" width="9" height="9" fill="#ffffff"/>
  <rect x="117" y="108" width="9" height="9" fill="#ffffff"/>
  <rect x="126" y="108" width="9" height="9" fill="#ffffff"/>
  <rect x="135" y="108" width="9" height="9" fill="#ffffff"/>
  <rect x="144" y="108" width="9" height="9" fill="#ffffff"/>
  <rect x="153" y="108" width="9" height="9" fill="#ffffff"/>
  <rect x="162" y="108" width="9" height="9" fill="#ffffff"/>
  <rect x="171" y="108" width="9" height="9" fill="#ffffff"/>
  <rect x="180" y="108" width="9" height="9" fill="#ffffff"/>
  <rect x="189" y="108" width="9" height="9" fill="#ffffff"/>
  <rect x="198" y="108" width="9" height="9" fill="#1a1a2e"/>
  <rect x="0" y="117" width="9" height="9" fill="#1a1a2e"/>
  <rect x="9" y="117" width="9" height="9" fill="#ffffff"/>
  <rect x="18" y="117" width="9" height="9" fill="#ffffff"/>
  <rect x="27" y="117" width="9" height="9" fill="#ffffff"/>
  <rect x="36" y="117" width="9" height="9" fill="#ffffff"/>
  <rect x="45" y="117" width="9" height="9" fill="#ffffff"/>
  <rect x="54" y="117" width="9" height="9" fill="#ffffff"/>
  <rect x="63" y="117" width="9" height="9" fill="#ffffff"/>
  <rect x="72" y="117" width="9" height="9" fill="#ffffff"/>
  <rect x="81" y="117" width="9" height="9" fill="#ffffff"/>
  <rect x="90" y="117" width="9" height="9" fill="#ffffff"/>
  <rect x="99" y="117" width="9" height="9" fill="#ffffff"/>
  <rect x="108" y="117" width="9" height="9" fill="#ffffff"/>
  <rect x="117" y="117" width="9" height="9" fill="#ffffff"/>
  <rect x="126" y="117" width="9" height="9" fill="#ffffff"/>
  <rect x="135" y="117" width="9" height="9" fill="#ffffff"/>
  <rect x="144" y="117" width="9" height="9" fill="#ffffff"/>
  <rect x="153" y="117" width="9" height="9" fill="#ffffff"/>
  <rect x="162" y="117" width="9" height="9" fill="#ffffff"/>
  <rect x="171" y="117" width="9" height="9" fill="#ffffff"/>
  <rect x="180" y="117" width="9" height="9" fill="#ffffff"/>
  <rect x="189" y="117" width="9" height="9" fill="#ffffff"/>
  <rect x="198" y="117" width="9" height="9" fill="#1a1a2e"/>
  <rect x="0" y="126" width="9" height="9" fill="#1a1a2e"/>
  <rect x="9" y="126" width="9" height="9" fill="#ffffff"/>
  <rect x="18" y="126" width="9" height="9" fill="#ffffff"/>
  <rect x="27" y="126" width="9" height="9" fill="#ffffff"/>
  <rect x="36" y="126" width="9" height="9" fill="#ffffff"/>
  <rect x="45" y="126" width="9" height="9" fill="#ffffff"/>
  <rect x="54" y="126" width="9" height="9" fill="#ffffff"/>
  <rect x="63" y="126" width="9" height="9" fill="#ffffff"/>
  <rect x="72" y="126" width="9" height="9" fill="#ffffff"/>
  <rect x="81" y="126" width="9" height="9" fill="#ffffff"/>
  <rect x="90" y="126" width="9" height="9" fill="#ffffff"/>
  <rect x="99" y="126" width="9" height="9" fill="#ffffff"/>
  <rect x="108" y="126" width="9" height="9" fill="#ffffff"/>
  <rect x="117" y="126" width="9" height="9" fill="#ffffff"/>
  <rect x="126" y="126" width="9" height="9" fill="#ffffff"/>
  <rect x="135" y="126" width="9" height="9" fill="#ffffff"/>
  <rect x="144" y="126" width="9" height="9" fill="#ffffff"/>
  <rect x="153" y="126" width="9" height="9" fill="#ffffff"/>
  <rect x="162" y="126" width="9" height="9" fill="#ffffff"/>
  <rect x="171" y="126" width="9" height="9" fill="#ffffff"/>
  <rect x="180" y="126" width="9" height="9" fill="#ffffff"/>
  <rect x="189" y="126" width="9" height="9" fill="#ffffff"/>
  <rect x="198" y="126" width="9" height="9" fill="#1a1a2e"/>
  <rect x="9" y="135" width="9" height="9" fill="#1a1a2e"/>
  <rect x="18" y="135" width="9" height="9" fill="#1a1a2e"/>
  <rect x="27" y="135" width="9" height="9" fill="#1a1a2e"/>
  <rect x="36" y="135" width="9" height="9" fill="#1a1a2e"/>
  <rect x="45" y="135" width="9" height="9" fill="#1a1a2e"/>
  <rect x="54" y="135" width="9" height="9" fill="#1a1a2e"/>
  <rect x="63" y="135" width="9" height="9" fill="#1a1a2e"/>
  <rect x="72" y="135" width="9" height="9" fill="#1a1a2e"/>
  <rect x="81" y="135" width="9" height="9" fill="#1a1a2e"/>
  <rect x="90" y="135" width="9" height="9" fill="#1a1a2e"/>
  <rect x="99" y="135" width="9" height="9" fill="#1a1a2e"/>
  <rect x="108" y="135" width="9" height="9" fill="#1a1a2e"/>
  <rect x="117" y="135" width="9" height="9" fill="#1a1a2e"/>
  <rect x="126" y="135" width="9" height="9" fill="#1a1a2e"/>
  <rect x="135" y="135" width="9" height="9" fill="#1a1a2e"/>
  <rect x="144" y="135" width="9" height="9" fill="#1a1a2e"/>
  <rect x="153" y="135" width="9" height="9" fill="#1a1a2e"/>
  <rect x="162" y="135" width="9" height="9" fill="#1a1a2e"/>
  <rect x="171" y="135" width="9" height="9" fill="#1a1a2e"/>
  <rect x="180" y="135" width="9" height="9" fill="#1a1a2e"/>
  <rect x="189" y="135" width="9" height="9" fill="#1a1a2e"/>
  <rect x="198" y="135" width="9" height="9" fill="#1a1a2e"/>
</svg>